<?plantuml 1.2026.1?><svg xmlns="http://www.w3.org/2000/svg" xmlns:xlink="http://www.w3.org/1999/xlink" contentStyleType="text/css" data-diagram-type="CLASS" height="482px" preserveAspectRatio="none" style="width:2015px;height:482px;background:#FFFFFF;" version="1.1" viewBox="0 0 2015 482" width="2015px" zoomAndPan="magnify"><defs/><g><!--cluster Main Module--><g class="cluster" data-qualified-name="Main Module" data-source-line="4" id="ent0002"><rect fill="none" height="312.93" rx="2.5" ry="2.5" style="stroke:#000000;stroke-width:1.5;" width="280" x="7" y="7"/><text fill="#000000" font-family="sans-serif" font-size="14" font-weight="bold" lengthAdjust="spacing" textLength="100.8506" x="96.5747" y="21.9951">Main Module</text></g><!--cluster Core Module--><g class="cluster" data-qualified-name="Core Module" data-source-line="16" id="ent0005"><rect fill="none" height="313.05" rx="2.5" ry="2.5" style="stroke:#000000;stroke-width:1.5;" width="505" x="311" y="163.89"/><text fill="#000000" font-family="sans-serif" font-size="14" font-weight="bold" lengthAdjust="spacing" textLength="98.998" x="514.001" y="178.8851">Core Module</text></g><!--cluster Input Module--><g class="cluster" data-qualified-name="Input Module" data-source-line="32" id="ent0009"><rect fill="none" height="115.29" rx="2.5" ry="2.5" style="stroke:#000000;stroke-width:1.5;" width="294" x="840" y="196.49"/><text fill="#000000" font-family="sans-serif" font-size="14" font-weight="bold" lengthAdjust="spacing" textLength="104.5625" x="934.7188" y="211.4851">Input Module</text></g><!--cluster Output Module--><g class="cluster" data-qualified-name="Output Module" data-source-line="41" id="ent0012"><rect fill="none" height="115.29" rx="2.5" ry="2.5" style="stroke:#000000;stroke-width:1.5;" width="479" x="1158" y="196.49"/><text fill="#000000" font-family="sans-serif" font-size="14" font-weight="bold" lengthAdjust="spacing" textLength="117.9473" x="1338.5264" y="211.4851">Output Module</text></g><!--class Bootstrap--><g class="entity" data-qualified-name="Main Module.Bootstrap" data-source-line="5" id="ent0003"><rect fill="#F1F1F1" height="96.8906" rx="2.5" ry="2.5" style="stroke:#181818;stroke-width:0.5;" width="248.9951" x="22.5" y="42"/><ellipse cx="108.6328" cy="58" fill="#ADD1B2" rx="11" ry="11" style="stroke:#181818;stroke-width:1;"/><path d="M111.6016,63.6406 Q111.0234,63.9375 110.3828,64.0781 Q109.7422,64.2344 109.0391,64.2344 Q106.5391,64.2344 105.2109,62.5938 Q103.8984,60.9375 103.8984,57.8125 Q103.8984,54.6875 105.2109,53.0313 Q106.5391,51.375 109.0391,51.375 Q109.7422,51.375 110.3828,51.5313 Q111.0391,51.6875 111.6016,51.9844 L111.6016,54.7031 Q110.9766,54.125 110.3828,53.8594 Q109.7891,53.5781 109.1641,53.5781 Q107.8203,53.5781 107.1328,54.6563 Q106.4453,55.7188 106.4453,57.8125 Q106.4453,59.9063 107.1328,60.9844 Q107.8203,62.0469 109.1641,62.0469 Q109.7891,62.0469 110.3828,61.7813 Q110.9766,61.5 111.6016,60.9219 L111.6016,63.6406 Z " fill="#000000"/><text fill="#000000" font-family="sans-serif" font-size="14" lengthAdjust="spacing" textLength="68.2295" x="129.1328" y="62.8467">Bootstrap</text><line style="stroke:#181818;stroke-width:0.5;" x1="23.5" x2="270.4951" y1="74" y2="74"/><line style="stroke:#181818;stroke-width:0.5;" x1="23.5" x2="270.4951" y1="82" y2="82"/><g data-visibility-modifier="PUBLIC_METHOD"><ellipse cx="33.5" cy="95.6484" fill="#84BE84" rx="3" ry="3" style="stroke:#038048;stroke-width:1;"/></g><text fill="#000000" font-family="sans-serif" font-size="14" lengthAdjust="spacing" textLength="222.9951" x="42.5" y="98.9951">bootstrap(config_file: str): None</text><g data-visibility-modifier="PRIVATE_METHOD"><rect fill="#F24D5C" height="6" style="stroke:#C82930;stroke-width:1;" width="6" x="30.5" y="108.9453"/></g><text fill="#000000" font-family="sans-serif" font-size="14" lengthAdjust="spacing" textLength="164.6436" x="42.5" y="115.292">_load_config(path): dict</text><g data-visibility-modifier="PRIVATE_METHOD"><rect fill="#F24D5C" height="6" style="stroke:#C82930;stroke-width:1;" width="6" x="30.5" y="125.2422"/></g><text fill="#000000" font-family="sans-serif" font-size="14" lengthAdjust="spacing" textLength="212.5088" x="42.5" y="131.5889">_validate_config(config): None</text></g><!--class RegistryFactory--><g class="entity" data-qualified-name="Main Module.RegistryFactory" data-source-line="10" id="ent0004"><rect fill="#F1F1F1" height="80.5938" rx="2.5" ry="2.5" style="stroke:#181818;stroke-width:0.5;" width="186.8633" x="53.57" y="223.34"/><ellipse cx="88.5937" cy="239.34" fill="#ADD1B2" rx="11" ry="11" style="stroke:#181818;stroke-width:1;"/><path d="M91.5624,244.9806 Q90.9843,245.2775 90.3437,245.4181 Q89.7031,245.5744 88.9999,245.5744 Q86.4999,245.5744 85.1718,243.9337 Q83.8593,242.2775 83.8593,239.1525 Q83.8593,236.0275 85.1718,234.3712 Q86.4999,232.715 88.9999,232.715 Q89.7031,232.715 90.3437,232.8712 Q90.9999,233.0275 91.5624,233.3244 L91.5624,236.0431 Q90.9374,235.465 90.3437,235.1994 Q89.7499,234.9181 89.1249,234.9181 Q87.7812,234.9181 87.0937,235.9962 Q86.4062,237.0587 86.4062,239.1525 Q86.4062,241.2462 87.0937,242.3244 Q87.7812,243.3869 89.1249,243.3869 Q89.7499,243.3869 90.3437,243.1212 Q90.9374,242.84 91.5624,242.2619 L91.5624,244.9806 Z " fill="#000000"/><text fill="#000000" font-family="sans-serif" font-size="14" lengthAdjust="spacing" textLength="110.3662" x="107.0434" y="244.1867">RegistryFactory</text><line style="stroke:#181818;stroke-width:0.5;" x1="54.57" x2="239.4333" y1="255.34" y2="255.34"/><g data-visibility-modifier="PUBLIC_FIELD"><ellipse cx="64.57" cy="268.9884" fill="none" rx="3" ry="3" style="stroke:#038048;stroke-width:1;"/></g><text fill="#000000" font-family="sans-serif" font-size="14" lengthAdjust="spacing" textLength="145.6465" x="73.57" y="272.3351">INPUT_DRIVERS: dict</text><g data-visibility-modifier="PUBLIC_FIELD"><ellipse cx="64.57" cy="285.2853" fill="none" rx="3" ry="3" style="stroke:#038048;stroke-width:1;"/></g><text fill="#000000" font-family="sans-serif" font-size="14" lengthAdjust="spacing" textLength="160.8633" x="73.57" y="288.632">OUTPUT_DRIVERS: dict</text><line style="stroke:#181818;stroke-width:0.5;" x1="54.57" x2="239.4333" y1="295.9338" y2="295.9338"/></g><!--class DataSink--><g class="entity" data-qualified-name="Core Module.DataSink" data-source-line="17" id="ent0006"><rect fill="#F1F1F1" height="72.5625" rx="2.5" ry="2.5" style="stroke:#181818;stroke-width:0.5;" width="205.5117" x="594.24" y="388.38"/><ellipse cx="661.1536" cy="408.5128" fill="#B4A7E5" rx="11" ry="11" style="stroke:#181818;stroke-width:1;"/><path d="M657.0754,404.2784 L657.0754,402.1222 L664.4661,402.1222 L664.4661,404.2784 L661.9973,404.2784 L661.9973,412.3566 L664.4661,412.3566 L664.4661,414.5128 L657.0754,414.5128 L657.0754,412.3566 L659.5442,412.3566 L659.5442,404.2784 L657.0754,404.2784 Z " fill="#000000"/><text fill="#000000" font-family="sans-serif" font-size="12" font-style="italic" lengthAdjust="spacing" textLength="63.5156" x="681.488" y="404.5187">&#171;Protocol&#187;</text><text fill="#000000" font-family="sans-serif" font-size="14" font-style="italic" lengthAdjust="spacing" textLength="63.1846" x="681.6536" y="420.3439">DataSink</text><line style="stroke:#181818;stroke-width:0.5;" x1="595.24" x2="798.7517" y1="428.6456" y2="428.6456"/><line style="stroke:#181818;stroke-width:0.5;" x1="595.24" x2="798.7517" y1="436.6456" y2="436.6456"/><g data-visibility-modifier="PUBLIC_METHOD"><ellipse cx="605.24" cy="450.2941" fill="#84BE84" rx="3" ry="3" style="stroke:#038048;stroke-width:1;"/></g><text fill="#000000" font-family="sans-serif" font-size="14" lengthAdjust="spacing" textLength="179.5117" x="614.24" y="453.6407">write(records: dict): None</text></g><!--class PipelineService--><g class="entity" data-qualified-name="Core Module.PipelineService" data-source-line="20" id="ent0007"><rect fill="#F1F1F1" height="72.5625" rx="2.5" ry="2.5" style="stroke:#181818;stroke-width:0.5;" width="232.8486" x="326.58" y="388.38"/><ellipse cx="385.3349" cy="408.5128" fill="#B4A7E5" rx="11" ry="11" style="stroke:#181818;stroke-width:1;"/><path d="M381.2568,404.2784 L381.2568,402.1222 L388.6474,402.1222 L388.6474,404.2784 L386.1786,404.2784 L386.1786,412.3566 L388.6474,412.3566 L388.6474,414.5128 L381.2568,414.5128 L381.2568,412.3566 L383.7255,412.3566 L383.7255,404.2784 L381.2568,404.2784 Z " fill="#000000"/><text fill="#000000" font-family="sans-serif" font-size="12" font-style="italic" lengthAdjust="spacing" textLength="63.5156" x="427.4965" y="404.5187">&#171;Protocol&#187;</text><text fill="#000000" font-family="sans-serif" font-size="14" font-style="italic" lengthAdjust="spacing" textLength="106.8389" x="405.8349" y="420.3439">PipelineService</text><line style="stroke:#181818;stroke-width:0.5;" x1="327.58" x2="558.4286" y1="428.6456" y2="428.6456"/><line style="stroke:#181818;stroke-width:0.5;" x1="327.58" x2="558.4286" y1="436.6456" y2="436.6456"/><g data-visibility-modifier="PUBLIC_METHOD"><ellipse cx="337.58" cy="450.2941" fill="#84BE84" rx="3" ry="3" style="stroke:#038048;stroke-width:1;"/></g><text fill="#000000" font-family="sans-serif" font-size="14" lengthAdjust="spacing" textLength="206.8486" x="346.58" y="453.6407">execute(raw_data: list): None</text></g><!--class TransformationEngine--><g class="entity" data-qualified-name="Core Module.TransformationEngine" data-source-line="23" id="ent0008"><rect fill="#F1F1F1" height="129.4844" rx="2.5" ry="2.5" style="stroke:#181818;stroke-width:0.5;" width="232.8486" x="446.58" y="198.89"/><ellipse cx="482.0682" cy="214.89" fill="#ADD1B2" rx="11" ry="11" style="stroke:#181818;stroke-width:1;"/><path d="M485.0369,220.5306 Q484.4588,220.8275 483.8182,220.9681 Q483.1776,221.1244 482.4744,221.1244 Q479.9744,221.1244 478.6463,219.4838 Q477.3338,217.8275 477.3338,214.7025 Q477.3338,211.5775 478.6463,209.9213 Q479.9744,208.265 482.4744,208.265 Q483.1776,208.265 483.8182,208.4213 Q484.4744,208.5775 485.0369,208.8744 L485.0369,211.5931 Q484.4119,211.015 483.8182,210.7494 Q483.2244,210.4681 482.5994,210.4681 Q481.2557,210.4681 480.5682,211.5463 Q479.8807,212.6088 479.8807,214.7025 Q479.8807,216.7963 480.5682,217.8744 Q481.2557,218.9369 482.5994,218.9369 Q483.2244,218.9369 483.8182,218.6713 Q484.4119,218.39 485.0369,217.8119 L485.0369,220.5306 Z " fill="#000000"/><text fill="#000000" font-family="sans-serif" font-size="14" lengthAdjust="spacing" textLength="155.3193" x="500.6211" y="219.7367">TransformationEngine</text><line style="stroke:#181818;stroke-width:0.5;" x1="447.58" x2="678.4286" y1="230.89" y2="230.89"/><g data-visibility-modifier="PRIVATE_FIELD"><rect fill="none" height="6" style="stroke:#C82930;stroke-width:1;" width="6" x="454.58" y="241.5384"/></g><text fill="#000000" font-family="sans-serif" font-size="14" lengthAdjust="spacing" textLength="100.5156" x="466.58" y="247.8851">sink: DataSink</text><g data-visibility-modifier="PRIVATE_FIELD"><rect fill="none" height="6" style="stroke:#C82930;stroke-width:1;" width="6" x="454.58" y="257.8353"/></g><text fill="#000000" font-family="sans-serif" font-size="14" lengthAdjust="spacing" textLength="90.959" x="466.58" y="264.182">settings: dict</text><line style="stroke:#181818;stroke-width:0.5;" x1="447.58" x2="678.4286" y1="271.4838" y2="271.4838"/><g data-visibility-modifier="PUBLIC_METHOD"><ellipse cx="457.58" cy="285.1322" fill="#84BE84" rx="3" ry="3" style="stroke:#038048;stroke-width:1;"/></g><text fill="#000000" font-family="sans-serif" font-size="14" lengthAdjust="spacing" textLength="206.8486" x="466.58" y="288.4789">execute(raw_data: list): None</text><g data-visibility-modifier="PRIVATE_METHOD"><rect fill="#F24D5C" height="6" style="stroke:#C82930;stroke-width:1;" width="6" x="454.58" y="298.4291"/></g><text fill="#000000" font-family="sans-serif" font-size="14" lengthAdjust="spacing" textLength="100.8916" x="466.58" y="304.7757">_normalize(df)</text><g data-visibility-modifier="PRIVATE_METHOD"><rect fill="#F24D5C" height="6" style="stroke:#C82930;stroke-width:1;" width="6" x="454.58" y="314.7259"/></g><text fill="#000000" font-family="sans-serif" font-size="14" lengthAdjust="spacing" textLength="116.2314" x="466.58" y="321.0726">_build_report(df)</text></g><!--class CSVReader--><g class="entity" data-qualified-name="Input Module.CSVReader" data-source-line="33" id="ent0010"><rect fill="#F1F1F1" height="64.2969" rx="2.5" ry="2.5" style="stroke:#181818;stroke-width:0.5;" width="110.415" x="1007.79" y="231.49"/><ellipse cx="1022.79" cy="247.49" fill="#ADD1B2" rx="11" ry="11" style="stroke:#181818;stroke-width:1;"/><path d="M1025.7588,253.1306 Q1025.1806,253.4275 1024.54,253.5681 Q1023.8994,253.7244 1023.1963,253.7244 Q1020.6963,253.7244 1019.3681,252.0838 Q1018.0556,250.4275 1018.0556,247.3025 Q1018.0556,244.1775 1019.3681,242.5213 Q1020.6963,240.865 1023.1963,240.865 Q1023.8994,240.865 1024.54,241.0213 Q1025.1963,241.1775 1025.7588,241.4744 L1025.7588,244.1931 Q1025.1338,243.615 1024.54,243.3494 Q1023.9463,243.0681 1023.3213,243.0681 Q1021.9775,243.0681 1021.29,244.1463 Q1020.6025,245.2088 1020.6025,247.3025 Q1020.6025,249.3963 1021.29,250.4744 Q1021.9775,251.5369 1023.3213,251.5369 Q1023.9463,251.5369 1024.54,251.2713 Q1025.1338,250.99 1025.7588,250.4119 L1025.7588,253.1306 Z " fill="#000000"/><text fill="#000000" font-family="sans-serif" font-size="14" lengthAdjust="spacing" textLength="78.415" x="1036.79" y="252.3367">CSVReader</text><line style="stroke:#181818;stroke-width:0.5;" x1="1008.79" x2="1117.205" y1="263.49" y2="263.49"/><line style="stroke:#181818;stroke-width:0.5;" x1="1008.79" x2="1117.205" y1="271.49" y2="271.49"/><g data-visibility-modifier="PUBLIC_METHOD"><ellipse cx="1018.79" cy="285.1384" fill="#84BE84" rx="3" ry="3" style="stroke:#038048;stroke-width:1;"/></g><text fill="#000000" font-family="sans-serif" font-size="14" lengthAdjust="spacing" textLength="80.1172" x="1027.79" y="288.4851">run(): None</text></g><!--class JSONReader--><g class="entity" data-qualified-name="Input Module.JSONReader" data-source-line="36" id="ent0011"><rect fill="#F1F1F1" height="64.2969" rx="2.5" ry="2.5" style="stroke:#181818;stroke-width:0.5;" width="116.6836" x="855.66" y="231.49"/><ellipse cx="870.66" cy="247.49" fill="#ADD1B2" rx="11" ry="11" style="stroke:#181818;stroke-width:1;"/><path d="M873.6288,253.1306 Q873.0506,253.4275 872.41,253.5681 Q871.7694,253.7244 871.0663,253.7244 Q868.5663,253.7244 867.2381,252.0838 Q865.9256,250.4275 865.9256,247.3025 Q865.9256,244.1775 867.2381,242.5213 Q868.5663,240.865 871.0663,240.865 Q871.7694,240.865 872.41,241.0213 Q873.0663,241.1775 873.6288,241.4744 L873.6288,244.1931 Q873.0038,243.615 872.41,243.3494 Q871.8163,243.0681 871.1913,243.0681 Q869.8475,243.0681 869.16,244.1463 Q868.4725,245.2088 868.4725,247.3025 Q868.4725,249.3963 869.16,250.4744 Q869.8475,251.5369 871.1913,251.5369 Q871.8163,251.5369 872.41,251.2713 Q873.0038,250.99 873.6288,250.4119 L873.6288,253.1306 Z " fill="#000000"/><text fill="#000000" font-family="sans-serif" font-size="14" lengthAdjust="spacing" textLength="84.6836" x="884.66" y="252.3367">JSONReader</text><line style="stroke:#181818;stroke-width:0.5;" x1="856.66" x2="971.3436" y1="263.49" y2="263.49"/><line style="stroke:#181818;stroke-width:0.5;" x1="856.66" x2="971.3436" y1="271.49" y2="271.49"/><g data-visibility-modifier="PUBLIC_METHOD"><ellipse cx="866.66" cy="285.1384" fill="#84BE84" rx="3" ry="3" style="stroke:#038048;stroke-width:1;"/></g><text fill="#000000" font-family="sans-serif" font-size="14" lengthAdjust="spacing" textLength="80.1172" x="875.66" y="288.4851">run(): None</text></g><!--class ConsoleWriter--><g class="entity" data-qualified-name="Output Module.ConsoleWriter" data-source-line="42" id="ent0013"><rect fill="#F1F1F1" height="64.2969" rx="2.5" ry="2.5" style="stroke:#181818;stroke-width:0.5;" width="205.5117" x="1415.24" y="231.49"/><ellipse cx="1464.2844" cy="247.49" fill="#ADD1B2" rx="11" ry="11" style="stroke:#181818;stroke-width:1;"/><path d="M1467.2532,253.1306 Q1466.6751,253.4275 1466.0344,253.5681 Q1465.3938,253.7244 1464.6907,253.7244 Q1462.1907,253.7244 1460.8626,252.0838 Q1459.5501,250.4275 1459.5501,247.3025 Q1459.5501,244.1775 1460.8626,242.5213 Q1462.1907,240.865 1464.6907,240.865 Q1465.3938,240.865 1466.0344,241.0213 Q1466.6907,241.1775 1467.2532,241.4744 L1467.2532,244.1931 Q1466.6282,243.615 1466.0344,243.3494 Q1465.4407,243.0681 1464.8157,243.0681 Q1463.4719,243.0681 1462.7844,244.1463 Q1462.0969,245.2088 1462.0969,247.3025 Q1462.0969,249.3963 1462.7844,250.4744 Q1463.4719,251.5369 1464.8157,251.5369 Q1465.4407,251.5369 1466.0344,251.2713 Q1466.6282,250.99 1467.2532,250.4119 L1467.2532,253.1306 Z " fill="#000000"/><text fill="#000000" font-family="sans-serif" font-size="14" lengthAdjust="spacing" textLength="98.9229" x="1484.7844" y="252.3367">ConsoleWriter</text><line style="stroke:#181818;stroke-width:0.5;" x1="1416.24" x2="1619.7517" y1="263.49" y2="263.49"/><line style="stroke:#181818;stroke-width:0.5;" x1="1416.24" x2="1619.7517" y1="271.49" y2="271.49"/><g data-visibility-modifier="PUBLIC_METHOD"><ellipse cx="1426.24" cy="285.1384" fill="#84BE84" rx="3" ry="3" style="stroke:#038048;stroke-width:1;"/></g><text fill="#000000" font-family="sans-serif" font-size="14" lengthAdjust="spacing" textLength="179.5117" x="1435.24" y="288.4851">write(records: dict): None</text></g><!--class GraphicsChartWriter--><g class="entity" data-qualified-name="Output Module.GraphicsChartWriter" data-source-line="45" id="ent0014"><rect fill="#F1F1F1" height="64.2969" rx="2.5" ry="2.5" style="stroke:#181818;stroke-width:0.5;" width="205.5117" x="1174.24" y="231.49"/><ellipse cx="1202.6807" cy="247.49" fill="#ADD1B2" rx="11" ry="11" style="stroke:#181818;stroke-width:1;"/><path d="M1205.6494,253.1306 Q1205.0713,253.4275 1204.4307,253.5681 Q1203.79,253.7244 1203.0869,253.7244 Q1200.5869,253.7244 1199.2588,252.0838 Q1197.9463,250.4275 1197.9463,247.3025 Q1197.9463,244.1775 1199.2588,242.5213 Q1200.5869,240.865 1203.0869,240.865 Q1203.79,240.865 1204.4307,241.0213 Q1205.0869,241.1775 1205.6494,241.4744 L1205.6494,244.1931 Q1205.0244,243.615 1204.4307,243.3494 Q1203.8369,243.0681 1203.2119,243.0681 Q1201.8682,243.0681 1201.1807,244.1463 Q1200.4932,245.2088 1200.4932,247.3025 Q1200.4932,249.3963 1201.1807,250.4744 Q1201.8682,251.5369 1203.2119,251.5369 Q1203.8369,251.5369 1204.4307,251.2713 Q1205.0244,250.99 1205.6494,250.4119 L1205.6494,253.1306 Z " fill="#000000"/><text fill="#000000" font-family="sans-serif" font-size="14" lengthAdjust="spacing" textLength="143.6436" x="1219.6675" y="252.3367">GraphicsChartWriter</text><line style="stroke:#181818;stroke-width:0.5;" x1="1175.24" x2="1378.7517" y1="263.49" y2="263.49"/><line style="stroke:#181818;stroke-width:0.5;" x1="1175.24" x2="1378.7517" y1="271.49" y2="271.49"/><g data-visibility-modifier="PUBLIC_METHOD"><ellipse cx="1185.24" cy="285.1384" fill="#84BE84" rx="3" ry="3" style="stroke:#038048;stroke-width:1;"/></g><text fill="#000000" font-family="sans-serif" font-size="14" lengthAdjust="spacing" textLength="179.5117" x="1194.24" y="288.4851">write(records: dict): None</text></g><g class="entity" data-qualified-name="GMN25" data-source-line="64" id="ent0026"><path d="M1655.72,243.5 L1655.72,283.7656 L2008.2708,283.7656 L2008.2708,253.5 L1998.2708,243.5 L1655.72,243.5" fill="#FEFFDD" style="stroke:#181818;stroke-width:0.5;"/><path d="M1998.2708,243.5 L1998.2708,253.5 L2008.2708,253.5 L1998.2708,243.5" fill="#FEFFDD" style="stroke:#181818;stroke-width:1;"/><text fill="#000000" font-family="sans-serif" font-size="13" lengthAdjust="spacing" textLength="261.936" x="1661.72" y="260.5669">Core owns protocols and business rules.</text><text fill="#000000" font-family="sans-serif" font-size="13" lengthAdjust="spacing" textLength="331.5508" x="1661.72" y="275.6997">All concrete IO dependencies point inward to Core.</text></g><!--link Bootstrap to RegistryFactory--><g class="link" data-entity-1="ent0003" data-entity-2="ent0004" data-link-type="dependency" data-source-line="50" id="lnk15"><path codeLine="50" d="M147,139.15 C147,165.56 147,191.83 147,216.9" fill="none" id="Bootstrap-to-RegistryFactory" style="stroke:#181818;stroke-width:1;"/><polygon fill="#181818" points="147,222.9,151,213.9,147,217.9,143,213.9,147,222.9" style="stroke:#181818;stroke-width:1;"/><text fill="#000000" font-family="sans-serif" font-size="13" lengthAdjust="spacing" textLength="29.7832" x="117" y="177.0969">uses</text></g><!--link Bootstrap to TransformationEngine--><g class="link" data-entity-1="ent0003" data-entity-2="ent0008" data-link-type="dependency" data-source-line="51" id="lnk16"><path codeLine="51" d="M255.96,139.16 C255.96,172.96 255.96,211.94 255.96,211.94 C255.96,211.94 353.63,211.94 440.49,211.94" fill="none" id="Bootstrap-to-TransformationEngine" style="stroke:#181818;stroke-width:1;"/><polygon fill="#181818" points="446.49,211.94,437.49,207.94,441.49,211.94,437.49,215.94,446.49,211.94" style="stroke:#181818;stroke-width:1;"/><text fill="#000000" font-family="sans-serif" font-size="13" lengthAdjust="spacing" textLength="143.7617" x="170.84" y="208.0069">injects sink + settings</text></g><!--link Bootstrap to CSVReader--><g class="link" data-entity-1="ent0003" data-entity-2="ent0010" data-link-type="dependency" data-source-line="52" id="lnk17"><path codeLine="52" d="M271.97,74.94 C522.63,74.94 1063,74.94 1063,74.94 C1063,74.94 1063,171.25 1063,225.2" fill="none" id="Bootstrap-to-CSVReader" style="stroke:#181818;stroke-width:1;"/><polygon fill="#181818" points="1063,231.2,1067,222.2,1063,226.2,1059,222.2,1063,231.2" style="stroke:#181818;stroke-width:1;"/><text fill="#000000" font-family="sans-serif" font-size="13" lengthAdjust="spacing" textLength="127.6577" x="617.61" y="71.0069">builds from registry</text></g><!--link Bootstrap to JSONReader--><g class="link" data-entity-1="ent0003" data-entity-2="ent0011" data-link-type="dependency" data-source-line="53" id="lnk18"><path codeLine="53" d="M271.94,106.94 C489.28,106.94 914,106.94 914,106.94 C914,106.94 914,179.27 914,225.17" fill="none" id="Bootstrap-to-JSONReader" style="stroke:#181818;stroke-width:1;"/><polygon fill="#181818" points="914,231.17,918,222.17,914,226.17,910,222.17,914,231.17" style="stroke:#181818;stroke-width:1;"/><text fill="#000000" font-family="sans-serif" font-size="13" lengthAdjust="spacing" textLength="127.6577" x="527.08" y="103.0069">builds from registry</text></g><!--link CSVReader to PipelineService--><g class="link" data-entity-1="ent0010" data-entity-2="ent0007" data-link-type="dependency" data-source-line="55" id="lnk19"><path codeLine="55" d="M1063,296.09 C1063,327.03 1063,368.94 1063,368.94 C1063,368.94 531.21,368.94 531.21,368.94 C531.21,368.94 531.21,371.61 531.21,382.12" fill="none" id="CSVReader-to-PipelineService" style="stroke:#181818;stroke-width:1;stroke-dasharray:7,7;"/><polygon fill="#181818" points="531.21,388.12,535.21,379.12,531.21,383.12,527.21,379.12,531.21,388.12" style="stroke:#181818;stroke-width:1;"/><text fill="#000000" font-family="sans-serif" font-size="13" lengthAdjust="spacing" textLength="76.0894" x="746.94" y="365.0069">depends on</text></g><!--link JSONReader to PipelineService--><g class="link" data-entity-1="ent0011" data-entity-2="ent0007" data-link-type="dependency" data-source-line="56" id="lnk20"><path codeLine="56" d="M914,295.89 C914,320.04 914,348.94 914,348.94 C914,348.94 503,348.94 503,348.94 C503,348.94 503,362.77 503,382.13" fill="none" id="JSONReader-to-PipelineService" style="stroke:#181818;stroke-width:1;stroke-dasharray:7,7;"/><polygon fill="#181818" points="503,388.13,507,379.13,503,383.13,499,379.13,503,388.13" style="stroke:#181818;stroke-width:1;"/><text fill="#000000" font-family="sans-serif" font-size="13" lengthAdjust="spacing" textLength="76.0894" x="638.43" y="345.0069">depends on</text></g><!--link TransformationEngine to PipelineService--><g class="link" data-entity-1="ent0008" data-entity-2="ent0007" data-link-type="extension" data-source-line="57" id="lnk21"><path codeLine="57" d="M474.79,328.67 C474.79,348.92 474.79,352.52 474.79,370.1" fill="none" id="TransformationEngine-to-PipelineService" style="stroke:#181818;stroke-width:1;stroke-dasharray:7,7;"/><polygon fill="none" points="474.79,388.1,480.79,370.1,468.79,370.1,474.79,388.1" style="stroke:#181818;stroke-width:1;"/></g><!--link TransformationEngine to DataSink--><g class="link" data-entity-1="ent0008" data-entity-2="ent0006" data-link-type="dependency" data-source-line="59" id="lnk22"><path codeLine="59" d="M636.83,328.67 C636.83,348.92 636.83,364.52 636.83,382.1" fill="none" id="TransformationEngine-to-DataSink" style="stroke:#181818;stroke-width:1;"/><polygon fill="#181818" points="636.83,388.1,640.83,379.1,636.83,383.1,632.83,379.1,636.83,388.1" style="stroke:#181818;stroke-width:1;"/><text fill="#000000" font-family="sans-serif" font-size="13" lengthAdjust="spacing" textLength="139.8071" x="496.83" y="354.4469">outbound abstraction</text></g><!--link ConsoleWriter to DataSink--><g class="link" data-entity-1="ent0013" data-entity-2="ent0006" data-link-type="extension" data-source-line="60" id="lnk23"><path codeLine="60" d="M1518,296.23 C1518,346.43 1518,436.94 1518,436.94 C1518,436.94 1038.65,436.94 818.15,436.94" fill="none" id="ConsoleWriter-to-DataSink" style="stroke:#181818;stroke-width:1;stroke-dasharray:7,7;"/><polygon fill="none" points="800.15,436.94,818.15,442.94,818.15,430.94,800.15,436.94" style="stroke:#181818;stroke-width:1;"/></g><!--link GraphicsChartWriter to DataSink--><g class="link" data-entity-1="ent0014" data-entity-2="ent0006" data-link-type="extension" data-source-line="61" id="lnk24"><path codeLine="61" d="M1277,296.03 C1277,339.94 1277,412.94 1277,412.94 C1277,412.94 984.69,412.94 818.02,412.94" fill="none" id="GraphicsChartWriter-to-DataSink" style="stroke:#181818;stroke-width:1;stroke-dasharray:7,7;"/><polygon fill="none" points="800.02,412.94,818.02,418.94,818.02,406.94,800.02,412.94" style="stroke:#181818;stroke-width:1;"/></g><!--link TransformationEngine to GMN25--><g class="link" data-entity-1="ent0008" data-entity-2="ent0026" data-link-type="association" data-source-line="64" id="lnk27"><path d="M679.83,312.94 C993.76,312.94 1832,312.94 1832,312.94 C1832,312.94 1832,297.77 1832,284.26" fill="none" id="TransformationEngine-GMN25" style="stroke:#181818;stroke-width:1;stroke-dasharray:7,7;"/></g><?plantuml-src bLJRJXj137sVhx3w58II3rYXI2tGAfKWA07w63cptisKORoQyPAcBVzURxAvmLBQfzNQnyUNOqzwSA72Y8_WNI1PLGGSPS4cxHmLsWSiQIehJn392eRIap6j7JvSeGjmnNdjwGFyCW3MOqhmYLcIHApMDe3J-TRGinmALyuAvoa3DPraSCs1rh3-p3FcimsaLw4ir9ixAwtt2RtBKMYBs7ps3C-x0YPKEYLVVKOh75VRCaRNDtUtiul9wFvoCZsWFXtVtNPvditpGRFd7EceMHU4Oe6Mu085fouymDdPJMHXotuut6PTHYVKq_5npDE6-xZcFS-DgwXHOqhnoUb_5ntz85itXBYSwJGmK_sIT4tXDc981ST75CVXCfJAtBBqarQRxUfkRIJYGfaE9_DUjaQNqAJmxYVrykAajSrhv_DPf4ftgZKVJtCKgbewTkTyUZyXp2bk-urrw7LrztKwlluxyZ3Tk9Otyd58xEbR8rByPyasiLzqenVEflC5Hlal1YrjVoJz_l3LncPG9qelG9s2Phe_t_Ks4pIQmYbiPNmHl1zi1cjr4XIH7_MkDvbVm0_6-mRUx1a7W-6htTMcgQAWOHpC0TkxsCuk1uFVhy9CDxIfVdUG6N0jSwv33ZXlkhCDqXohlYRVtKANgiS84rZqGNJbGe2BJbdC-hNWPKXGjIUS0BMAUQqoaIvFr4LC0_FHUz27p4PIoj6u7GG5wqX3MTy6rNU9CGTXQ4W7HltGL63-0000?></g></svg>